<?xml version="1.0" encoding="utf-8"?>
<svg version="1.1" id="Layer_1" xmlns="http://www.w3.org/2000/svg" xmlns:xlink="http://www.w3.org/1999/xlink" x="0px" y="0px" viewBox="0 0 122.88 83.01" style="enable-background:new 0 0 122.88 83.01" xml:space="preserve">
<g>
  <path d="M4.54,0h56.9h56.9c1.25,0,2.39,0.51,3.21,1.33c0.82,0.82,1.33,1.96,1.33,3.21v15.47V63v15.47c0,1.25-0.51,2.39-1.33,3.21 
    c-0.82,0.82-1.96,1.33-3.21,1.33h-56.9H4.54c-1.25,0-2.39-0.51-3.21-1.33C0.51,80.86,0,79.72,0,78.47V63V20.01V4.54 
    c0-1.25,0.51-2.39,1.33-3.21C2.15,0.51,3.29,0,4.54,0L4.54,0z M63.6,18.4c5.55,0.51,10.53,2.98,14.25,6.7c4.2,4.2,6.8,10,6.8,16.41
    c0,6.41-2.6,12.21-6.8,16.41c-3.72,3.72-8.7,6.19-14.25,6.7v14.07h54.74c0.06,0,0.11-0.03,0.15-0.07c0.04-0.04,0.07-0.09,0.07-0.15
    V65.16h-17.62c-1.05,0-2-0.43-2.68-1.11c-0.69-0.69-1.11-1.64-1.11-2.68V21.65c0-1.05,0.43-2,1.11-2.68
    c0.69-0.69,1.64-1.11,2.68-1.11h17.62V4.54c0-0.06-0.03-0.11-0.07-0.15s-0.09-0.07-0.15-0.07H63.6V18.4L63.6,18.4z M59.28,64.62
    c-5.55-0.51-10.53-2.98-14.25-6.7c-4.2-4.2-6.8-10-6.8-16.41c0-6.41,2.6-12.21,6.8-16.41c3.72-3.72,8.7-6.19,14.25-6.7V4.32H4.54
    c-0.06,0-0.11,0.03-0.15,0.07C4.35,4.43,4.32,4.48,4.32,4.54v13.31h17.03c1.05,0,2,0.43,2.68,1.11c0.69,0.69,1.11,1.64,1.11,2.68
    v39.72c0,1.05-0.43,2-1.11,2.68c-0.69,0.69-1.64,1.11-2.68,1.11H4.32v13.31c0,0.06,0.03,0.11,0.07,0.15
    c0.04,0.04,0.09,0.07,0.15,0.07h54.74V64.62L59.28,64.62z M74.8,28.15c-2.94-2.94-6.84-4.91-11.19-5.41v37.53
    c4.35-0.5,8.26-2.47,11.19-5.41c3.42-3.42,5.53-8.14,5.53-13.36C80.33,36.29,78.21,31.57,74.8,28.15L74.8,28.15z M59.28,22.74
    c-4.35,0.5-8.26,2.47-11.19,5.41c-3.42,3.42-5.53,8.14-5.53,13.36c0,5.22,2.11,9.94,5.53,13.36c2.94,2.94,6.84,4.91,11.19,5.41
    V22.74L59.28,22.74z M4.32,60.84h16.5V22.17H4.32V60.84L4.32,60.84z M118.56,22.17h-17.1v38.67h17.1V22.17L118.56,22.17z"/>
</g>
</svg>
